<svg width="36" height="32" viewBox="0 0 36 32" xmlns="http://www.w3.org/2000/svg">
    <path d="M17.338 14.384a7.265 7.265 0 0 0 7.312-4.088 7.178 7.178 0 0 0-1.456-8.211A7.29 7.29 0 0 0 14.916.727a7.202 7.202 0 0 0-4.034 7.311c.395 3.355 3.076 5.99 6.456 6.346zm16.173 8.151v-2.45c0-.746-.609-1.352-1.36-1.352-.752 0-1.361.606-1.361 1.352v1.256c.367.382.713.783 1.039 1.2l1.682-.006zM5.165 21.334v-1.249a1.367 1.367 0 0 0-1.322-1.38 1.388 1.388 0 0 0-.988.396 1.37 1.37 0 0 0-.411.978v2.456h1.683c.325-.418.671-.819 1.038-1.201zm3.175 8.113v-.09a.746.746 0 0 0-.748-.744H3.578v-.789h3.855a.904.904 0 0 0 .907-.901v-.226a.904.904 0 0 0-.907-.901H3.578v-.782h4.014a.746.746 0 0 0 .748-.744v-.315a.746.746 0 0 0-.748-.744H1.848a.625.625 0 0 0-.517.273 5.78 5.78 0 0 0-.928 3.333 5.88 5.88 0 0 0 .873 3.03c.142.22.387.352.649.35h5.669a.746.746 0 0 0 .746-.744v-.006zm26.287-5.97a.625.625 0 0 0-.52-.273h-5.743a.746.746 0 0 0-.749.744v.316c0 .41.335.743.749.743h4.013v.789h-3.855a.904.904 0 0 0-.907.901v.226c0 .498.406.901.907.901h3.855v.796h-4.013a.75.75 0 0 0-.53.217.741.741 0 0 0-.219.526v.09c0 .411.335.744.749.744h5.669a.772.772 0 0 0 .648-.35c.56-.913.86-1.96.871-3.03a5.78 5.78 0 0 0-.925-3.333v-.007zm-7.03 7.31a.875.875 0 0 1-.889-.815v-.881h-2.893c-.019-.072-.043-.142-.064-.212l2.948-2.93v-2.512a.875.875 0 0 1 .873-.823h3.223a15.505 15.505 0 0 0-12.718-6.615A15.505 15.505 0 0 0 5.36 22.614h3.238a.87.87 0 0 1 .876.823v2.052l3.066 3.047a5.621 5.621 0 0 0-.173.555H9.474v.88a.87.87 0 0 1-.871.823H2.671v.622a.588.588 0 0 0 .59.584h29.66a.588.588 0 0 0 .59-.584v-.622l-5.914-.006zm-9.506-6.116a5.92 5.92 0 0 0-3.488 1.127l-4.222-4.191a12.583 12.583 0 0 1 15.679.2l-4.218 4.194a5.919 5.919 0 0 0-3.751-1.33z" fill="#FFF" fill-rule="evenodd"/>
</svg>
