<svg width="34" height="32" viewBox="0 0 34 32" xmlns="http://www.w3.org/2000/svg">
    <path d="M16.9 1.2h1.95v2.402h1.2V1.2h2.05A.6.6 0 0 0 22.1 0h-5.2a.6.6 0 0 0 0 1.2zM1.6 17.81a.6.6 0 0 0 .6.6h10a.6.6 0 0 0 0-1.201h-10a.6.6 0 0 0-.6.6zm-.7-4.003h10a.6.6 0 0 0 0-1.2H.9a.6.6 0 0 0 0 1.2zm24.15-1.45a.6.6 0 0 0-.848 0l-2.846 2.85a3.199 3.199 0 0 0-4.276.513 3.203 3.203 0 0 0 .106 4.308 3.199 3.199 0 0 0 4.297.3 3.203 3.203 0 0 0 .703-4.252l2.864-2.87a.6.6 0 0 0 0-.85zM19.5 20.01a2.2 2.2 0 1 1 .001-4.4 2.2 2.2 0 0 1-.001 4.4zm-8 2.602a.6.6 0 0 0-.6-.6H.9a.6.6 0 0 0 0 1.2h10a.6.6 0 0 0 .6-.6zM30.844 7.404a2 2 0 0 0 2.216-3.276 2 2 0 0 0-3.098 2.457l-.8.8c-5.43-5.047-13.828-5.062-19.276-.035a.6.6 0 0 0 .414 1.054h3.868c.265.003.528-.054.768-.166a10.596 10.596 0 0 1 12.668 2.736 10.61 10.61 0 0 1 .555 12.954 10.597 10.597 0 0 1-12.387 3.81 1.867 1.867 0 0 0-.652-.124h-4.376a.6.6 0 0 0-.39 1.059c5.72 4.805 14.182 4.356 19.362-1.028 5.18-5.383 5.306-13.861.288-19.397l.84-.844zm.856-2.802a1 1 0 1 1 0 2 1 1 0 0 1 0-2z" fill="#FFF" fill-rule="evenodd"/>
</svg>
