<svg width="24" height="26" viewBox="0 0 24 26" xmlns="http://www.w3.org/2000/svg">
    <path d="M21.64 14.28a6.35 6.35 0 1 0-8.98 8.98 6.35 6.35 0 0 0 8.98-8.98zm-2.242 6.738a.642.642 0 0 1-.902 0L16.7 19.22a.635.635 0 0 1-.184-.451v-2.54a.635.635 0 0 1 1.27 0v2.28l1.613 1.606a.635.635 0 0 1 0 .902zm-9.726.292H3.463a1.27 1.27 0 0 1-1.27-1.27V10.022h16.65v.948a.873.873 0 0 0 .825.886.847.847 0 0 0 .869-.847V5.93a2.963 2.963 0 0 0-2.963-2.962h-1.835V1.556a.706.706 0 0 0-1.41 0v1.41h-7.62v-1.41a.706.706 0 0 0-1.411 0v1.41H3.463A2.963 2.963 0 0 0 .5 5.93v14.11a2.963 2.963 0 0 0 2.963 2.963H9.64a.868.868 0 0 0 .88-.74.847.847 0 0 0-.847-.953zM2.193 5.93c0-.702.569-1.27 1.27-1.27h1.835v1.129a.706.706 0 0 0 1.41 0v-1.13h7.62v1.13a.706.706 0 0 0 1.411 0v-1.13h1.835c.701 0 1.27.57 1.27 1.27v2.682H2.194V5.93z" fill="#FFF" fill-rule="evenodd"/>
</svg>
